HIERARCHY
ROOT root
{
	OFFSET 0.000000 0.000000 0.000000
	CHANNELS 6 Xposition Yposition Zposition Zrotation Yrotation Xrotation
	JOINT lhip
	{
		OFFSET 0.058581 -0.082280 -0.017664
		CHANNELS 3 Zrotation Yrotation Xrotation
		JOINT lknee
		{
			OFFSET 0.043451 -0.386469 0.008037
			CHANNELS 3 Zrotation Yrotation Xrotation
			JOINT lankle
			{
				OFFSET -0.014790 -0.426874 -0.037428
				CHANNELS 3 Zrotation Yrotation Xrotation
				JOINT ltoe
				{
					OFFSET 0.041054 -0.060286 0.122042
					CHANNELS 3 Zrotation Yrotation Xrotation
					End Site
					{
						OFFSET 0.000000 0.000000 0.000000
					}
				}
			}
		}
	}
	JOINT rhip
	{
		OFFSET -0.060310 -0.090513 -0.013543
		CHANNELS 3 Zrotation Yrotation Xrotation
		JOINT rknee
		{
			OFFSET -0.043257 -0.383688 -0.004843
			CHANNELS 3 Zrotation Yrotation Xrotation
			JOINT rankle
			{
				OFFSET 0.019056 -0.420046 -0.034562
				CHANNELS 3 Zrotation Yrotation Xrotation
				JOINT rtoe
				{
					OFFSET -0.034840 -0.062106 0.130323
					CHANNELS 3 Zrotation Yrotation Xrotation
					End Site
					{
						OFFSET 0.000000 0.000000 0.000000
					}
				}
			}
		}
	}
	JOINT lowerback
	{
		OFFSET 0.004439 0.124404 -0.038385
		CHANNELS 3 Zrotation Yrotation Xrotation
		JOINT upperback
		{
			OFFSET 0.004488 0.137956 0.026820
			CHANNELS 3 Zrotation Yrotation Xrotation
			JOINT chest
			{
				OFFSET -0.002265 0.056032 0.002855
				CHANNELS 3 Zrotation Yrotation Xrotation
				JOINT lowerneck
				{
					OFFSET -0.013390 0.211636 -0.033468
					CHANNELS 3 Zrotation Yrotation Xrotation
					JOINT upperneck
					{
						OFFSET 0.010113 0.088937 0.050410
						CHANNELS 3 Zrotation Yrotation Xrotation
						End Site
						{
							OFFSET 0.000000 0.000000 0.000000
						}
					}
				}
				JOINT lclavicle
				{
					OFFSET 0.071702 0.114000 -0.018898
					CHANNELS 3 Zrotation Yrotation Xrotation
					JOINT lshoulder
					{
						OFFSET 0.122921 0.045205 -0.019046
						CHANNELS 3 Zrotation Yrotation Xrotation
						JOINT lelbow
						{
							OFFSET 0.255332 -0.015649 -0.022946
							CHANNELS 3 Zrotation Yrotation Xrotation
							JOINT lwrist
							{
								OFFSET 0.265709 0.012698 -0.007375
								CHANNELS 3 Zrotation Yrotation Xrotation
								End Site
								{
									OFFSET 0.000000 0.000000 0.000000
								}
							}
						}
					}
				}
				JOINT rclavicle
				{
					OFFSET -0.082954 0.112472 -0.023707
					CHANNELS 3 Zrotation Yrotation Xrotation
					JOINT rshoulder
					{
						OFFSET -0.113228 0.046853 -0.008472
						CHANNELS 3 Zrotation Yrotation Xrotation
						JOINT relbow
						{
							OFFSET -0.260127 -0.014369 -0.031269
							CHANNELS 3 Zrotation Yrotation Xrotation
							JOINT rwrist
							{
								OFFSET -0.269108 0.006794 -0.006027
								CHANNELS 3 Zrotation Yrotation Xrotation
								End Site
								{
									OFFSET 0.000000 0.000000 0.000000
								}
							}
						}
					}
				}
			}
		}
	}
}
MOTION
Frames: 14
Frame Time: 0.033333
1.704564 0.753723 0.839021 -87.316104 2.048462 103.341503 5.460958 -7.517662 -41.121855 -11.575481 -1.648669 65.993304 5.638770 14.271948 -40.543661 0.000000 -0.000000 0.000000 0.489105 8.302672 -40.958620 1.309476 -4.671829 66.359780 4.866634 -13.699158 -40.816509 0.000000 -0.000000 0.000000 -2.271983 0.191764 27.944704 3.334924 -0.675925 -7.014699 0.035249 -2.637108 6.062851 4.884029 4.221598 -21.342300 2.358738 -7.785431 -10.117476 -26.133734 1.769540 1.034638 -49.246935 -3.464591 7.774184 5.807151 -28.653770 4.721513 0.770597 -2.107162 -11.221689 26.125181 0.313769 -3.184446 53.667663 1.276794 13.652412 -12.918431 29.567424 -0.685802 3.767447 1.316318 -7.634337 
1.685869 0.754473 0.823834 -87.359829 1.608762 101.575033 4.439957 -7.992168 -39.199958 -11.989629 -1.429470 69.951731 4.799736 14.383827 -42.246337 0.000000 -0.000000 0.000000 0.990293 8.285479 -38.936154 0.980685 -4.017780 70.294201 5.231930 -13.849460 -42.184344 0.000000 -0.000000 0.000000 -2.484385 0.467594 30.450611 3.361695 -1.441302 -6.908160 0.024223 -2.881291 5.511871 4.902507 4.464620 -22.529364 2.266122 -7.939535 -10.225360 -26.953244 0.172068 0.594756 -49.212433 -3.676135 7.528037 6.074982 -26.852768 3.617495 2.021612 -2.561226 -10.807966 27.028712 2.453566 -3.861358 53.384337 2.179771 14.137631 -12.537932 28.602534 -0.786846 2.841494 1.322677 -6.799233 
1.662017 0.754597 0.815453 -87.954818 1.696629 101.719397 3.938118 -8.175514 -37.578032 -11.930954 -1.270195 71.930662 4.583988 15.310133 -43.445562 0.000000 -0.000000 0.000000 1.737925 8.795176 -37.737753 0.762910 -3.564429 72.317688 5.668530 -14.680725 -42.602590 0.000000 -0.000000 0.000000 -2.514321 -0.035701 29.979627 2.970613 -0.926965 -8.846409 -0.126493 -2.897949 6.119760 5.066311 4.865474 -22.590746 1.801694 -6.678498 -9.554188 -27.464088 0.494130 0.591921 -48.700408 -3.645494 7.489363 4.502714 -28.367271 4.993146 1.751281 -1.686575 -9.397264 27.286310 2.447183 -3.860236 53.096083 2.118242 14.967569 -11.520714 31.061156 0.350591 3.055042 0.997183 -6.403184 
1.626545 0.754198 0.823774 -88.296100 1.684802 99.579398 2.014246 -7.124009 -29.943950 -11.767103 -3.310786 69.292703 3.924719 15.971273 -44.075797 0.000000 -0.000000 0.000000 3.159457 7.514392 -30.547410 0.656385 -2.906845 69.530134 5.993322 -14.902849 -42.324765 0.000000 -0.000000 0.000000 -2.165164 -0.170426 29.888561 2.496127 -1.166268 -8.877802 -0.291945 -2.856778 5.617340 4.976385 3.870711 -21.665747 2.157829 -6.940102 -8.878087 -27.546073 0.546586 1.010429 -48.123382 -2.288221 7.740581 2.992093 -32.196026 7.154547 2.558386 -2.789280 -8.418607 26.871097 2.988657 -4.110232 52.600532 -0.620606 15.686010 -10.413139 36.412367 1.952726 2.350346 1.879051 -6.487309 
1.577816 0.753063 0.849079 -89.241208 2.084006 95.605714 0.393901 -5.512935 -17.719736 -11.412670 -6.195871 63.022936 1.905225 15.514254 -40.703969 0.000000 -0.000000 0.000000 5.144229 5.733772 -18.901706 0.890482 -0.815277 62.916959 5.535096 -14.322774 -38.659032 0.000000 -0.000000 0.000000 -1.855760 -0.037009 27.029969 2.333882 -1.796559 -5.057319 -0.366020 -2.389369 5.116374 4.927397 3.593747 -19.347090 2.055649 -6.019045 -8.015007 -26.781907 0.559265 0.837441 -48.772253 -1.004597 8.014041 1.567720 -35.339680 8.454429 3.672587 -4.224923 -9.152733 25.500958 2.952956 -4.903823 52.512413 -2.916630 16.454789 -8.758948 41.772024 4.789896 1.706744 2.934747 -5.744801 
1.520271 0.753070 0.891230 -89.745448 2.090844 93.549787 0.094361 -5.362388 -7.932897 -11.180437 -7.481700 54.990371 0.558102 13.511615 -29.553504 0.000000 -0.000000 0.000000 5.365568 4.716617 -9.464771 1.801818 -0.138651 54.658984 5.157836 -13.040945 -27.767510 0.000000 -0.000000 0.000000 -2.489917 -0.076781 19.715419 2.539287 -2.535343 -2.277110 -0.427891 -2.542293 6.134010 4.728467 3.258164 -14.018308 1.991110 -4.143174 -4.788452 -25.378140 2.807684 0.906904 -50.307933 -1.080009 9.081595 0.462820 -35.885117 9.368632 4.529278 -5.415041 -9.701602 24.338552 -0.075426 -5.837115 52.783229 -3.222280 17.858705 -5.800444 44.392373 9.253147 2.740732 4.125142 -5.464708 
1.454679 0.751555 0.947041 -90.345310 1.994214 91.194885 0.933104 -4.650982 1.143130 -10.630358 -7.600587 44.734985 -2.173429 9.136301 -7.760316 0.000000 -0.000000 0.000000 3.941164 0.868141 -1.292492 1.404754 0.511080 46.027262 3.312516 -8.365369 -6.325239 0.000000 -0.000000 0.000000 -3.279067 0.353951 11.332512 2.893520 -3.881833 3.196959 -0.336941 -2.465233 5.150950 3.511392 1.715641 -6.035578 3.329945 -1.372093 -3.210637 -24.499632 4.202963 1.816102 -52.168829 -0.314638 10.209049 1.544665 -36.891448 9.943385 2.294332 -4.569018 -10.888320 22.873300 -2.142539 -4.062303 53.799876 -3.839485 17.899013 -6.160093 46.772975 10.686513 5.164351 3.075059 -7.923206 
1.392893 0.748989 1.008005 -90.617270 1.894896 88.866620 2.164000 -3.017028 6.518548 -7.289662 -6.252618 35.580714 -11.817884 6.338077 18.456239 0.000000 -0.000000 0.000000 1.678473 -1.867468 3.680822 -1.063528 -2.278274 38.754201 7.476921 -4.463676 20.338457 0.000000 -0.000000 0.000000 -3.408220 0.211535 7.195927 2.299433 -4.686659 4.999425 0.279889 -2.285792 4.085734 1.134530 -0.012445 0.867923 5.531642 1.825061 -2.623504 -23.804839 4.227945 3.584719 -54.681538 1.114956 8.703461 3.901715 -37.493011 5.654730 0.521162 -5.863526 -4.954659 20.899745 -2.529314 -2.550822 55.445517 -5.860473 15.956938 -4.185596 47.547504 8.277989 2.296203 3.274043 -6.297253 
1.343477 0.747209 1.060063 -90.497833 1.988135 88.925457 2.436387 -4.087818 3.792563 -5.925500 -4.040488 36.012182 -10.913147 7.550484 29.922869 0.000000 -0.000000 0.000000 1.889246 -1.381044 0.965373 -0.920300 -1.577400 39.245931 7.537958 -5.088811 41.432517 0.000000 -0.000000 0.000000 -3.161711 -0.657840 4.871127 2.341048 -4.830693 3.496104 0.305161 -2.398658 4.071292 -1.806130 -2.491968 5.211911 6.962409 5.539559 -2.179338 -24.156574 5.424941 5.302689 -55.282762 1.208230 7.592378 4.196954 -38.650435 4.544031 -0.401972 -4.972237 -5.182247 20.013154 -3.903018 -0.457217 56.438007 -6.015539 15.394596 -5.201160 48.081416 6.399865 3.616893 2.715256 -8.200107 
1.300223 0.745189 1.102163 -90.534874 1.580919 87.697726 1.001754 -6.243333 1.145100 -5.593605 -2.983089 38.744368 -6.550582 10.447986 26.860699 0.000000 -0.000000 0.000000 1.959394 0.598220 -1.999100 0.849351 0.053112 42.489837 10.086932 -3.757190 36.464995 0.000000 -0.000000 0.000000 -3.231990 -0.492230 5.411599 2.477886 -4.651424 3.425382 -0.080657 -2.464131 4.474003 -1.183967 -1.565447 5.261105 6.236364 4.622680 -1.897294 -24.808149 5.187956 4.436747 -55.373150 0.316994 8.501408 5.412964 -37.777357 2.589536 0.133578 -4.367448 -5.074012 21.296067 -4.710020 -1.047210 56.144040 -6.260652 15.561536 -6.948314 47.729922 3.997920 3.732633 2.698985 -8.618804 
1.259022 0.744360 1.134050 -90.432581 1.585804 85.403774 0.562446 -6.131458 0.412339 -3.963797 -2.743735 36.396808 -4.636054 11.443667 24.940825 0.000000 -0.000000 0.000000 2.434611 1.142321 -2.616535 0.448837 0.860454 40.288743 8.963806 -3.494190 34.035494 0.000000 -0.000000 0.000000 -2.745939 -0.423418 8.333605 2.213096 -4.363493 3.735480 -0.080306 -2.686802 4.502308 -0.802079 -1.080233 4.265329 5.993324 4.377114 -0.568796 -25.284989 4.368587 3.353161 -55.692827 -1.016759 8.844036 5.739701 -36.167032 2.990586 0.054718 -4.462537 -5.180828 21.786664 -3.966158 -1.429650 56.846698 -5.669373 15.972039 -8.682179 45.374342 1.725471 2.371633 2.681308 -9.101421 
1.220030 0.744393 1.154719 -90.373297 1.478002 84.377742 0.766577 -5.237949 -1.306970 -3.404387 -3.009252 30.838693 -4.779567 9.349604 22.458689 0.000000 -0.000000 0.000000 1.969942 0.519333 -3.989906 -0.542743 0.452203 34.678536 7.709432 -3.838012 31.463163 0.000000 -0.000000 0.000000 -2.472482 -0.338316 10.480619 1.796476 -4.445886 3.432094 0.374939 -2.604009 4.829388 -1.009400 -1.288739 3.892982 6.448524 4.508334 -0.447660 -25.620830 3.297078 3.039354 -56.310488 -2.124029 8.884338 6.038323 -35.124443 2.954261 0.396668 -4.422268 -4.984132 21.682558 -2.986651 -0.521408 57.441709 -4.301128 15.231904 -9.363892 43.499716 0.882495 2.294730 2.143045 -6.827102 
1.181831 0.743923 1.165660 -90.142092 1.360196 83.662101 0.747365 -4.496484 -3.066158 -3.672148 -4.050902 24.334557 -6.049151 8.813771 22.332844 0.000000 -0.000000 0.000000 1.150304 -0.252166 -6.050609 -1.536563 -2.350080 28.982743 7.142424 -5.467130 25.826807 0.000000 -0.000000 0.000000 -2.105163 -0.452270 12.676369 1.530182 -4.516925 2.894901 0.499794 -2.881107 5.210594 -1.055829 0.330846 1.783482 5.991143 3.563358 -0.464525 -25.807847 2.819596 2.409830 -56.761713 -3.236976 9.927842 6.570310 -34.161208 2.745816 0.755299 -5.429806 -6.102411 22.202584 -2.364440 -1.521055 56.890368 -3.817509 16.267242 -8.640547 41.834301 2.459147 2.006914 2.612591 -4.511301 
1.142106 0.743563 1.164725 -89.793340 1.482816 83.181866 0.932333 -3.028573 -5.263361 -3.071647 -4.052028 18.409759 -8.870938 7.742937 22.899931 0.000000 -0.000000 0.000000 0.504408 -1.876115 -7.830015 -1.471655 -5.137129 22.543447 7.938632 -5.357041 25.739198 0.000000 -0.000000 0.000000 -1.478899 -0.586774 14.921811 1.312355 -4.740487 1.980011 0.870505 -3.037632 4.897445 -1.351918 0.451551 0.625796 6.025252 2.731229 -0.968828 -25.636103 2.777406 1.983389 -57.267536 -3.603866 10.644949 5.778671 -33.998336 4.207934 1.332767 -5.878027 -5.495146 22.224006 -2.106843 -1.459525 56.363486 -3.249822 16.270297 -6.735344 41.089679 3.789226 -1.313439 3.986960 -2.927776 
